<svg width="26" height="23" viewBox="0 0 26 23" fill="none" xmlns="http://www.w3.org/2000/svg">
<path d="M24.9162 2.875H5.83555L5.45958 0.879436C5.36348 0.369527 4.91611 0 4.39481 0H0.541666C0.242531 0 0 0.241365 0 0.539062V0.898438C0 1.19613 0.242531 1.4375 0.541666 1.4375H4.09499L7.25142 18.1909C6.78459 18.7016 6.49999 19.3802 6.49999 20.125C6.49999 21.7128 7.7934 23 9.38887 23C10.9844 23 12.2778 21.7128 12.2778 20.125C12.2783 19.6202 12.1447 19.1243 11.8903 18.6875H18.443C18.1887 19.1243 18.055 19.6202 18.0556 20.125C18.0556 21.7128 19.349 23 20.9445 23C22.5399 23 23.8333 21.7128 23.8333 20.125C23.8333 19.3167 23.4977 18.5869 22.9582 18.0645C22.8412 17.6045 22.4232 17.25 21.9071 17.25H8.54388L8.00221 14.375H22.9604C23.4735 14.375 23.9163 14.0167 24.0209 13.5168L25.9768 4.17302C26.117 3.5035 25.6034 2.875 24.9162 2.875ZM10.8333 20.125C10.8333 20.9176 10.1853 21.5625 9.38887 21.5625C8.5924 21.5625 7.94443 20.9176 7.94443 20.125C7.94443 19.3324 8.5924 18.6875 9.38887 18.6875C10.1853 18.6875 10.8333 19.3324 10.8333 20.125ZM20.9444 21.5625C20.1479 21.5625 19.5 20.9176 19.5 20.125C19.5 19.3324 20.1479 18.6875 20.9444 18.6875C21.7409 18.6875 22.3889 19.3324 22.3889 20.125C22.3889 20.9176 21.7409 21.5625 20.9444 21.5625ZM22.6667 12.9375H7.73138L6.10638 4.3125H24.4723L22.6667 12.9375Z" fill="black"/>
</svg>
