<svg width="27" height="23" viewBox="0 0 27 23" fill="none" xmlns="http://www.w3.org/2000/svg">
<path d="M24.38 1.57601C21.5059 -0.806144 17.208 -0.410829 14.5397 2.26909L13.5008 3.31642L12.4619 2.27423C10.3103 0.1077 5.97023 -1.19632 2.62157 1.57601C-0.69018 4.32781 -0.864205 9.26667 2.09949 12.2444L12.3037 22.502C12.6306 22.8306 13.0631 23 13.4955 23C13.9279 23 14.3604 22.8357 14.6873 22.502L24.8915 12.2444C27.8658 9.26667 27.6917 4.32781 24.38 1.57601ZM23.6892 11.1046L13.5219 21.3623L3.3124 11.1046C1.28738 9.07158 0.865499 5.19545 3.71846 2.8287C6.60833 0.426005 10.0045 2.16642 11.249 3.4191L13.5008 5.68317L15.7526 3.4191C16.976 2.18695 20.4038 0.441407 23.2831 2.8287C26.1308 5.19031 25.7142 9.06645 23.6892 11.1046Z" fill="#010101"/>
</svg>
