<svg width="15" height="15" viewBox="0 0 15 15" fill="none" xmlns="http://www.w3.org/2000/svg">
<path fill-rule="evenodd" clip-rule="evenodd" d="M1.04212 5.84061C1.66961 3.49879 3.49879 1.66961 5.84062 1.04212C8.18245 0.414629 10.6811 1.08415 12.3955 2.79849C14.1098 4.51283 14.7793 7.01153 14.1519 9.35336C13.5244 11.6952 11.6952 13.5244 9.35336 14.1519C7.01153 14.7793 4.51283 14.1098 2.79849 12.3955C1.08416 10.6811 0.414633 8.18244 1.04212 5.84061ZM6.10827 2.04101C4.12331 2.57287 2.57288 4.1233 2.04101 6.10826C1.50914 8.09322 2.07664 10.2112 3.52973 11.6642C4.98282 13.1173 7.10075 13.6848 9.08571 13.153C11.0707 12.6211 12.6211 11.0707 13.153 9.08571C13.6848 7.10075 13.1173 4.98282 11.6642 3.52973C10.2112 2.07663 8.09323 1.50914 6.10827 2.04101Z" fill="black"/>
</svg>
